<svg viewBox="0 0 40 40" fill="none" xmlns="http://www.w3.org/2000/svg">
  <!-- Outer swoosh circle -->
  <path d="M20 2C10.06 2 2 10.06 2 20s8.06 18 18 18 18-8.06 18-18S29.94 2 20 2z" fill="none" stroke="url(#faviconGrad)" stroke-width="2.5" stroke-linecap="round" stroke-dasharray="85 28"/>
  <!-- White background for QR area -->
  <circle cx="20" cy="20" r="15" fill="white"/>
  <!-- QR code icon style -->
  <!-- Top-left finder -->
  <rect x="8" y="8" width="8" height="8" rx="1" fill="none" stroke="url(#faviconGrad)" stroke-width="2"/>
  <rect x="11" y="11" width="2" height="2" fill="url(#faviconGrad)"/>
  <!-- Top-right finder -->
  <rect x="24" y="8" width="8" height="8" rx="1" fill="none" stroke="url(#faviconGrad)" stroke-width="2"/>
  <rect x="27" y="11" width="2" height="2" fill="url(#faviconGrad)"/>
  <!-- Bottom-left finder -->
  <rect x="8" y="24" width="8" height="8" rx="1" fill="none" stroke="url(#faviconGrad)" stroke-width="2"/>
  <rect x="11" y="27" width="2" height="2" fill="url(#faviconGrad)"/>
  <!-- Data dots -->
  <rect x="19" y="9" width="2" height="2" fill="url(#faviconGrad)"/>
  <rect x="9" y="19" width="2" height="2" fill="url(#faviconGrad)"/>
  <rect x="19" y="19" width="2" height="2" fill="url(#faviconGrad)"/>
  <rect x="29" y="19" width="2" height="2" fill="url(#faviconGrad)"/>
  <rect x="19" y="29" width="2" height="2" fill="url(#faviconGrad)"/>
  <rect x="25" y="25" width="2" height="2" fill="url(#faviconGrad)"/>
  <rect x="29" y="25" width="2" height="2" fill="url(#faviconGrad)"/>
  <rect x="25" y="29" width="2" height="2" fill="url(#faviconGrad)"/>
  <rect x="29" y="29" width="2" height="2" fill="url(#faviconGrad)"/>
  <defs>
    <linearGradient id="faviconGrad" x1="0" y1="0" x2="40" y2="40" gradientUnits="userSpaceOnUse">
      <stop stop-color="#6b7280"/>
      <stop offset="0.5" stop-color="#4b5563"/>
      <stop offset="1" stop-color="#374151"/>
    </linearGradient>
  </defs>
</svg>